<svg width="20" height="20" viewBox="0 0 20 20" fill="none" xmlns="http://www.w3.org/2000/svg">
<path d="M7.47083 15C7.37177 15.6952 7.02518 16.3314 6.49473 16.7916C5.96429 17.2518 5.2856 17.5052 4.58333 17.5052C3.88107 17.5052 3.20238 17.2518 2.67193 16.7916C2.14149 16.3314 1.7949 15.6952 1.69583 15H0.833333V5.00001C0.833333 4.77899 0.921131 4.56703 1.07741 4.41075C1.23369 4.25447 1.44565 4.16667 1.66667 4.16667H13.3333C13.5543 4.16667 13.7663 4.25447 13.9226 4.41075C14.0789 4.56703 14.1667 4.77899 14.1667 5.00001V6.66667H16.6667L19.1667 10.0467V15H17.4708C17.3718 15.6952 17.0252 16.3314 16.4947 16.7916C15.9643 17.2518 15.2856 17.5052 14.5833 17.5052C13.8811 17.5052 13.2024 17.2518 12.6719 16.7916C12.1415 16.3314 11.7949 15.6952 11.6958 15H7.47083ZM12.5 5.83334H2.5V12.5417C2.8288 12.206 3.23383 11.9547 3.68063 11.8093C4.12742 11.6638 4.60274 11.6284 5.06615 11.7062C5.52955 11.7839 5.96731 11.9725 6.34217 12.2558C6.71704 12.5391 7.0179 12.9087 7.21917 13.3333H11.9475C12.0875 13.0392 12.275 12.7717 12.5 12.5417V5.83334ZM14.1667 10.8333H17.5V10.5958L15.8267 8.33334H14.1667V10.8333ZM14.5833 15.8333C14.915 15.8333 15.233 15.7016 15.4675 15.4671C15.702 15.2326 15.8337 14.9146 15.8337 14.5829C15.8337 14.2513 15.702 13.9332 15.4675 13.6987C15.233 13.4642 14.915 13.3325 14.5833 13.3325C14.2517 13.3325 13.9337 13.4642 13.6992 13.6987C13.4647 13.9332 13.3329 14.2513 13.3329 14.5829C13.3329 14.9146 13.4647 15.2326 13.6992 15.4671C13.9337 15.7016 14.2517 15.8333 14.5833 15.8333ZM5.83333 14.5833C5.83333 14.4192 5.801 14.2566 5.73818 14.105C5.67536 13.9533 5.58329 13.8155 5.46722 13.6995C5.35114 13.5834 5.21334 13.4913 5.06169 13.4285C4.91003 13.3657 4.74749 13.3333 4.58333 13.3333C4.41918 13.3333 4.25664 13.3657 4.10498 13.4285C3.95332 13.4913 3.81552 13.5834 3.69945 13.6995C3.58338 13.8155 3.4913 13.9533 3.42848 14.105C3.36567 14.2566 3.33333 14.4192 3.33333 14.5833C3.33333 14.9149 3.46503 15.2328 3.69945 15.4672C3.93387 15.7016 4.25181 15.8333 4.58333 15.8333C4.91485 15.8333 5.2328 15.7016 5.46722 15.4672C5.70164 15.2328 5.83333 14.9149 5.83333 14.5833Z" fill="black"/>
</svg>
