<svg width="20" height="20" viewBox="0 0 20 20" fill="none" xmlns="http://www.w3.org/2000/svg">
<g opacity="0.3">
<path d="M5.14166 15C5.31383 14.512 5.63311 14.0895 6.05549 13.7906C6.47787 13.4918 6.98256 13.3313 7.49999 13.3313C8.01742 13.3313 8.52211 13.4918 8.94449 13.7906C9.36687 14.0895 9.68616 14.512 9.85832 15H18.3333V16.6667H9.85832C9.68616 17.1546 9.36687 17.5771 8.94449 17.876C8.52211 18.1749 8.01742 18.3354 7.49999 18.3354C6.98256 18.3354 6.47787 18.1749 6.05549 17.876C5.63311 17.5771 5.31383 17.1546 5.14166 16.6667H1.66666V15H5.14166ZM10.1417 9.16665C10.3138 8.67871 10.6331 8.25618 11.0555 7.95731C11.4779 7.65844 11.9826 7.49794 12.5 7.49794C13.0174 7.49794 13.5221 7.65844 13.9445 7.95731C14.3669 8.25618 14.6862 8.67871 14.8583 9.16665H18.3333V10.8333H14.8583C14.6862 11.3213 14.3669 11.7438 13.9445 12.0427C13.5221 12.3415 13.0174 12.502 12.5 12.502C11.9826 12.502 11.4779 12.3415 11.0555 12.0427C10.6331 11.7438 10.3138 11.3213 10.1417 10.8333H1.66666V9.16665H10.1417ZM5.14166 3.33332C5.31383 2.84538 5.63311 2.42285 6.05549 2.12398C6.47787 1.82511 6.98256 1.66461 7.49999 1.66461C8.01742 1.66461 8.52211 1.82511 8.94449 2.12398C9.36687 2.42285 9.68616 2.84538 9.85832 3.33332H18.3333V4.99999H9.85832C9.68616 5.48793 9.36687 5.91046 8.94449 6.20933C8.52211 6.5082 8.01742 6.6687 7.49999 6.6687C6.98256 6.6687 6.47787 6.5082 6.05549 6.20933C5.63311 5.91046 5.31383 5.48793 5.14166 4.99999H1.66666V3.33332H5.14166Z" fill="#2E3456"/>
</g>
</svg>
