<svg width="20" height="20" viewBox="0 0 20 20" fill="none" xmlns="http://www.w3.org/2000/svg">
<path d="M9.16668 14.9483C7.4856 14.7344 5.94906 13.8884 4.86933 12.5823C3.78961 11.2762 3.24774 9.60794 3.35386 7.91664C3.45998 6.22533 4.20612 4.6379 5.44063 3.47697C6.67514 2.31605 8.30538 1.66876 10 1.66666C11.6967 1.66539 13.3301 2.31111 14.5672 3.47222C15.8044 4.63334 16.5523 6.22249 16.6586 7.91586C16.7648 9.60923 16.2214 11.2794 15.1391 12.586C14.0567 13.8927 12.5169 14.7375 10.8333 14.9483V16.6767C14.1217 16.7533 16.6667 17.2792 16.6667 17.9167C16.6667 18.6067 13.6817 19.1667 10 19.1667C6.31834 19.1667 3.33334 18.6067 3.33334 17.9167C3.33334 17.2792 5.87834 16.7533 9.16668 16.6767V14.9483ZM10 9.99999C10.442 9.99999 10.866 9.8244 11.1785 9.51184C11.4911 9.19928 11.6667 8.77535 11.6667 8.33332C11.6667 7.8913 11.4911 7.46738 11.1785 7.15481C10.866 6.84225 10.442 6.66666 10 6.66666C9.55798 6.66666 9.13406 6.84225 8.8215 7.15481C8.50894 7.46738 8.33334 7.8913 8.33334 8.33332C8.33334 8.77535 8.50894 9.19928 8.8215 9.51184C9.13406 9.8244 9.55798 9.99999 10 9.99999Z" fill="#2E3456"/>
</svg>
