<svg width="60" height="61" viewBox="0 0 60 61" fill="none" xmlns="http://www.w3.org/2000/svg">
<path opacity="0.3" d="M1.27841 57H3.03409V52.5966H5.42045C5.46023 52.5966 5.49432 52.5966 5.53409 52.5966L7.89773 57H9.89773L7.31818 52.2898C8.74432 51.7614 9.45455 50.5739 9.45455 49.0114C9.45455 46.8693 8.125 45.3636 5.42614 45.3636H1.27841V57ZM3.03409 51.0852V46.8693H5.23864C6.97159 46.8693 7.6875 47.6932 7.6875 49.0114C7.6875 50.3239 6.97159 51.0852 5.26136 51.0852H3.03409ZM14.9465 57.1761C16.8499 57.1761 18.1965 56.2386 18.5829 54.8182L16.9749 54.5284C16.6681 55.3523 15.9295 55.7727 14.9636 55.7727C13.509 55.7727 12.5318 54.8295 12.4863 53.1477H18.6909V52.5455C18.6909 49.392 16.8045 48.1591 14.8272 48.1591C12.3954 48.1591 10.7931 50.0114 10.7931 52.6932C10.7931 55.4034 12.3727 57.1761 14.9465 57.1761ZM12.492 51.875C12.5602 50.6364 13.4579 49.5625 14.8386 49.5625C16.1568 49.5625 17.0204 50.5398 17.0261 51.875H12.492ZM24.0919 57.1761C26.1544 57.1761 27.4897 55.9375 27.6772 54.2386H26.0238C25.8078 55.1818 25.0749 55.7386 24.1033 55.7386C22.6658 55.7386 21.7397 54.5398 21.7397 52.6364C21.7397 50.767 22.6828 49.5909 24.1033 49.5909C25.1828 49.5909 25.8419 50.2727 26.0238 51.0909H27.6772C27.4953 49.3295 26.0578 48.1591 24.0749 48.1591C21.6147 48.1591 20.0238 50.0114 20.0238 52.6761C20.0238 55.3068 21.5578 57.1761 24.0919 57.1761ZM29.3339 57H31.0328V48.2727H29.3339V57ZM30.1919 46.9261C30.7771 46.9261 31.2657 46.4716 31.2657 45.9148C31.2657 45.358 30.7771 44.8977 30.1919 44.8977C29.601 44.8977 29.118 45.358 29.118 45.9148C29.118 46.4716 29.601 46.9261 30.1919 46.9261ZM33.1583 60.2727H34.8572V55.642H34.9594C35.2663 56.1989 35.8913 57.1705 37.4822 57.1705C39.5958 57.1705 41.1299 55.4773 41.1299 52.6534C41.1299 49.8239 39.5731 48.1591 37.4651 48.1591C35.8458 48.1591 35.2606 49.1477 34.9594 49.6875H34.8174V48.2727H33.1583V60.2727ZM34.8231 52.6364C34.8231 50.8125 35.6185 49.6023 37.1015 49.6023C38.6413 49.6023 39.414 50.9034 39.414 52.6364C39.414 54.3864 38.6185 55.7216 37.1015 55.7216C35.6413 55.7216 34.8231 54.4716 34.8231 52.6364ZM46.6347 57.1761C48.5381 57.1761 49.8847 56.2386 50.271 54.8182L48.6631 54.5284C48.3563 55.3523 47.6176 55.7727 46.6517 55.7727C45.1972 55.7727 44.2199 54.8295 44.1744 53.1477H50.379V52.5455C50.379 49.392 48.4926 48.1591 46.5153 48.1591C44.0835 48.1591 42.4813 50.0114 42.4813 52.6932C42.4813 55.4034 44.0608 57.1761 46.6347 57.1761ZM44.1801 51.875C44.2483 50.6364 45.146 49.5625 46.5267 49.5625C47.8449 49.5625 48.7085 50.5398 48.7142 51.875H44.1801ZM58.6437 50.4034C58.2914 49.0455 57.2289 48.1591 55.3426 48.1591C53.371 48.1591 51.9732 49.1989 51.9732 50.7443C51.9732 51.983 52.7232 52.8068 54.3596 53.1705L55.8369 53.4943C56.6778 53.6818 57.0698 54.0568 57.0698 54.6023C57.0698 55.2784 56.3482 55.8068 55.2346 55.8068C54.2176 55.8068 53.5641 55.3693 53.3596 54.5114L51.7176 54.7614C52.0016 56.3068 53.2857 57.1761 55.246 57.1761C57.3539 57.1761 58.8141 56.0568 58.8141 54.4773C58.8141 53.2443 58.0301 52.483 56.4278 52.1136L55.0414 51.7955C54.0812 51.5682 53.6664 51.2443 53.6721 50.6534C53.6664 49.983 54.3937 49.5057 55.3596 49.5057C56.4164 49.5057 56.9051 50.0909 57.1039 50.6761L58.6437 50.4034Z" fill="#2E3456"/>
<g opacity="0.3">
<path d="M39 2.66667V29.3333H36.3333V18.6667H32.3333V9.33334C32.3333 7.56523 33.0357 5.86954 34.286 4.61929C35.5362 3.36905 37.2319 2.66667 39 2.66667ZM23 18.5333V29.3333H20.3333V18.5333C18.8277 18.2255 17.4747 17.4072 16.5029 16.2167C15.5311 15.0263 15.0002 13.5367 15 12V4.00001H17.6667V13.3333H20.3333V4.00001H23V13.3333H25.6667V4.00001H28.3333V12C28.3331 13.5367 27.8023 15.0263 26.8305 16.2167C25.8587 17.4072 24.5056 18.2255 23 18.5333Z" fill="#2E3456"/>
</g>
</svg>
