<svg width="20" height="20" viewBox="0 0 20 20" fill="none" xmlns="http://www.w3.org/2000/svg">
<path d="M3.33333 1.66667H16.6667C16.8877 1.66667 17.0996 1.75447 17.2559 1.91075C17.4122 2.06703 17.5 2.27899 17.5 2.50001V18.5633C17.5001 18.6329 17.4827 18.7013 17.4496 18.7624C17.4164 18.8235 17.3685 18.8754 17.3102 18.9132C17.2519 18.9511 17.185 18.9738 17.1157 18.9792C17.0464 18.9846 16.9768 18.9725 16.9133 18.9442L10 15.8583L3.08667 18.9433C3.02325 18.9717 2.95376 18.9837 2.88451 18.9784C2.81526 18.973 2.74844 18.9504 2.69015 18.9126C2.63185 18.8749 2.58392 18.8231 2.55071 18.7621C2.5175 18.7011 2.50007 18.6328 2.5 18.5633V2.50001C2.5 2.27899 2.5878 2.06703 2.74408 1.91075C2.90036 1.75447 3.11232 1.66667 3.33333 1.66667ZM15.8333 16.6375V3.33334H4.16667V16.6375L10 14.0342L15.8333 16.6375ZM10 11.25L7.55083 12.5375L8.01833 9.81084L6.0375 7.87917L8.77583 7.48084L10 5.00001L11.225 7.48084L13.9625 7.87917L11.9817 9.81084L12.4483 12.5375L10 11.25Z" fill="black"/>
</svg>
