<svg width="39" height="59" viewBox="0 0 39 59" fill="none" xmlns="http://www.w3.org/2000/svg">
<path d="M7.625 46.4205H9.31818C9.26705 44.5568 7.61932 43.2045 5.25568 43.2045C2.92045 43.2045 1.13068 44.5398 1.13068 46.5455C1.13068 48.1648 2.28977 49.1136 4.15909 49.6193L5.53409 49.9943C6.77841 50.3239 7.73864 50.733 7.73864 51.767C7.73864 52.9034 6.65341 53.6534 5.15909 53.6534C3.80682 53.6534 2.68182 53.0511 2.57955 51.7841H0.818182C0.931818 53.892 2.5625 55.1932 5.17045 55.1932C7.90341 55.1932 9.47727 53.7557 9.47727 51.7841C9.47727 49.6875 7.60795 48.875 6.13068 48.5114L4.99432 48.2159C4.08523 47.983 2.875 47.5568 2.88068 46.4432C2.88068 45.4545 3.78409 44.7216 5.21591 44.7216C6.55114 44.7216 7.5 45.3466 7.625 46.4205ZM12.9778 49.8182C12.9778 48.4261 13.8585 47.6307 15.0687 47.6307C16.2391 47.6307 16.938 48.375 16.938 49.6534V55H18.6369V49.4489C18.6369 47.2727 17.4437 46.1591 15.6482 46.1591C14.2903 46.1591 13.4721 46.75 13.063 47.6932H12.9551V43.3636H11.2789V55H12.9778V49.8182ZM24.4201 55.1761C26.8803 55.1761 28.4882 53.375 28.4882 50.6761C28.4882 47.9602 26.8803 46.1591 24.4201 46.1591C21.9598 46.1591 20.3519 47.9602 20.3519 50.6761C20.3519 53.375 21.9598 55.1761 24.4201 55.1761ZM24.4257 53.75C22.8178 53.75 22.0678 52.3466 22.0678 50.6705C22.0678 49 22.8178 47.5795 24.4257 47.5795C26.0223 47.5795 26.7723 49 26.7723 50.6705C26.7723 52.3466 26.0223 53.75 24.4257 53.75ZM30.2245 58.2727H31.9234V53.642H32.0257C32.3325 54.1989 32.9575 55.1705 34.5484 55.1705C36.662 55.1705 38.1961 53.4773 38.1961 50.6534C38.1961 47.8239 36.6393 46.1591 34.5314 46.1591C32.912 46.1591 32.3268 47.1477 32.0257 47.6875H31.8836V46.2727H30.2245V58.2727ZM31.8893 50.6364C31.8893 48.8125 32.6848 47.6023 34.1677 47.6023C35.7075 47.6023 36.4802 48.9034 36.4802 50.6364C36.4802 52.3864 35.6848 53.7216 34.1677 53.7216C32.7075 53.7216 31.8893 52.4716 31.8893 50.6364Z" fill="white"/>
<path d="M33.3333 26.6667V29.3333H6.66665V26.6667H7.99998V17.656C7.17914 17.1081 6.50626 16.366 6.04107 15.4957C5.57588 14.6253 5.33277 13.6535 5.33331 12.6667C5.33331 11.564 5.63198 10.5013 6.17731 9.59599L9.79331 3.33332C9.91034 3.13064 10.0786 2.96232 10.2813 2.8453C10.484 2.72827 10.7139 2.66666 10.948 2.66666H29.0533C29.2874 2.66666 29.5173 2.72827 29.72 2.8453C29.9226 2.96232 30.091 3.13064 30.208 3.33332L33.8106 9.57599C34.6061 10.8972 34.8617 12.474 34.5245 13.9788C34.1873 15.4837 33.2831 16.8006 32 17.656V26.6667H33.3333ZM11.7186 5.33332L8.47465 10.9507C8.15942 11.7295 8.14996 12.5987 8.44816 13.3842C8.74636 14.1698 9.33022 14.8137 10.0829 15.1872C10.8356 15.5607 11.7015 15.6361 12.5074 15.3984C13.3133 15.1607 13.9998 14.6275 14.4293 13.9053C14.876 12.7893 16.456 12.7893 16.904 13.9053C17.151 14.5245 17.5781 15.0555 18.13 15.4295C18.6819 15.8035 19.3333 16.0034 20 16.0034C20.6667 16.0034 21.318 15.8035 21.8699 15.4295C22.4218 15.0555 22.8489 14.5245 23.096 13.9053C23.5426 12.7893 25.1226 12.7893 25.5706 13.9053C25.7437 14.3313 26.003 14.7168 26.3322 15.0377C26.6614 15.3586 27.0534 15.6079 27.4836 15.77C27.9138 15.9321 28.3729 16.0035 28.8321 15.9796C29.2912 15.9557 29.7404 15.8371 30.1515 15.6312C30.5625 15.4254 30.9266 15.1367 31.2207 14.7834C31.5148 14.43 31.7327 14.0197 31.8606 13.5781C31.9885 13.1365 32.0237 12.6732 31.9639 12.2174C31.9041 11.7616 31.7507 11.323 31.5133 10.9293L28.28 5.33332H11.72H11.7186Z" fill="white"/>
</svg>
