<svg width="149" height="43" viewBox="0 0 149 43" fill="none" xmlns="http://www.w3.org/2000/svg">
<path d="M143.481 43H5.51852C2.48471 43 0 40.5799 0 37.625V5.375C0 2.42009 2.48471 -8.95607e-08 5.51852 -8.95607e-08H143.481C146.515 -8.95607e-08 149 2.42009 149 5.375V37.625C149 40.5799 146.515 43 143.481 43Z" fill="white"/>
<path d="M143.481 0.861343C146.037 0.861343 148.116 2.88638 148.116 5.375V37.625C148.116 40.1136 146.037 42.1387 143.481 42.1387H5.51852C2.96344 42.1387 0.884342 40.1136 0.884342 37.625V5.375C0.884342 2.88638 2.96344 0.861343 5.51852 0.861343H143.481ZM143.481 -8.95607e-08H5.51852C2.48471 -8.95607e-08 0 2.42009 0 5.375V37.625C0 40.5799 2.48471 43 5.51852 43H143.481C146.515 43 149 40.5799 149 37.625V5.375C149 2.42009 146.515 -8.95607e-08 143.481 -8.95607e-08Z" fill="#A6A6A6"/>
<path d="M52.3349 11.012C52.3349 11.9096 52.0589 12.6286 51.5154 13.1647C50.8904 13.8003 50.0764 14.1201 49.0789 14.1201C48.1256 14.1201 47.3116 13.7949 46.6439 13.154C45.9748 12.5036 45.6409 11.7054 45.6409 10.75C45.6409 9.79459 45.9748 8.9964 46.6439 8.3514C47.3116 7.70506 48.1256 7.37987 49.0789 7.37987C49.5535 7.37987 50.006 7.47527 50.4379 7.65265C50.8683 7.83137 51.2187 8.07324 51.4726 8.37155L50.8959 8.93862C50.453 8.42934 49.8502 8.17806 49.0789 8.17806C48.3836 8.17806 47.7807 8.41455 47.2689 8.89159C46.7625 9.36996 46.5087 9.98943 46.5087 10.75C46.5087 11.5106 46.7625 12.1354 47.2689 12.6138C47.7807 13.0854 48.3836 13.3273 49.0789 13.3273C49.817 13.3273 50.4379 13.0854 50.9276 12.6084C51.2505 12.2926 51.434 11.8572 51.4823 11.3009H49.0789V10.5242H52.2852C52.3238 10.6922 52.3349 10.8548 52.3349 11.012Z" fill="black" stroke="black" stroke-width="0.16" stroke-miterlimit="10"/>
<path d="M57.4216 8.31915H54.4098V10.3616H57.1249V11.1383H54.4098V13.1808H57.4216V13.9723H53.5572V7.52768H57.4216V8.31915Z" fill="black" stroke="black" stroke-width="0.16" stroke-miterlimit="10"/>
<path d="M61.0113 13.9723H60.1587V8.31915H58.3114V7.52768H62.86V8.31915H61.0113V13.9723Z" fill="black" stroke="black" stroke-width="0.16" stroke-miterlimit="10"/>
<path d="M66.1519 13.9723V7.52768H67.0031V13.9723H66.1519Z" fill="black" stroke="black" stroke-width="0.16" stroke-miterlimit="10"/>
<path d="M70.7763 13.9723H69.9306V8.31915H68.0764V7.52768H72.6306V8.31915H70.7763V13.9723Z" fill="black" stroke="black" stroke-width="0.16" stroke-miterlimit="10"/>
<path d="M81.2423 13.1432C80.5897 13.7949 79.7812 14.1201 78.8169 14.1201C77.847 14.1201 77.0385 13.7949 76.386 13.1432C75.7348 12.4928 75.4106 11.6946 75.4106 10.75C75.4106 9.80534 75.7348 9.00715 76.386 8.35677C77.0385 7.70506 77.847 7.37987 78.8169 7.37987C79.7757 7.37987 80.5842 7.70505 81.2367 8.36215C81.8934 9.0179 82.2177 9.81071 82.2177 10.75C82.2177 11.6946 81.8934 12.4928 81.2423 13.1432ZM77.0164 12.603C77.5076 13.0854 78.105 13.3273 78.8169 13.3273C79.5232 13.3273 80.1261 13.0854 80.6118 12.603C81.1015 12.1206 81.3499 11.5011 81.3499 10.75C81.3499 9.99884 81.1015 9.37937 80.6118 8.89696C80.1261 8.41456 79.5232 8.17268 78.8169 8.17268C78.105 8.17268 77.5076 8.41456 77.0164 8.89696C76.5267 9.37937 76.2783 9.99884 76.2783 10.75C76.2783 11.5011 76.5267 12.1206 77.0164 12.603Z" fill="black" stroke="black" stroke-width="0.16" stroke-miterlimit="10"/>
<path d="M83.4138 13.9723V7.52768H84.4485L87.6658 12.5399H87.703L87.6658 11.3009V7.52768H88.517V13.9723H87.6285L84.2595 8.71287H84.2222L84.2595 9.95718V13.9723H83.4138Z" fill="black" stroke="black" stroke-width="0.16" stroke-miterlimit="10"/>
<path d="M75.2008 23.384C72.6085 23.384 70.4908 25.3055 70.4908 27.9567C70.4908 30.5865 72.6085 32.5282 75.2008 32.5282C77.7987 32.5282 79.9164 30.5865 79.9164 27.9567C79.9164 25.3055 77.7987 23.384 75.2008 23.384ZM75.2008 30.7276C73.7784 30.7276 72.5547 29.584 72.5547 27.9567C72.5547 26.308 73.7784 25.1846 75.2008 25.1846C76.6232 25.1846 77.8525 26.308 77.8525 27.9567C77.8525 29.584 76.6232 30.7276 75.2008 30.7276ZM64.924 23.384C62.3261 23.384 60.2139 25.3055 60.2139 27.9567C60.2139 30.5865 62.3261 32.5282 64.924 32.5282C67.5204 32.5282 69.634 30.5865 69.634 27.9567C69.634 25.3055 67.5204 23.384 64.924 23.384ZM64.924 30.7276C63.5002 30.7276 62.2723 29.584 62.2723 27.9567C62.2723 26.308 63.5002 25.1846 64.924 25.1846C66.3464 25.1846 67.5701 26.308 67.5701 27.9567C67.5701 29.584 66.3464 30.7276 64.924 30.7276ZM52.6949 24.7855V26.7286H57.4588C57.3195 27.8143 56.947 28.6125 56.3758 29.1688C55.6805 29.8407 54.5974 30.5865 52.6949 30.5865C49.7632 30.5865 47.4675 28.2819 47.4675 25.4265C47.4675 22.571 49.7632 20.2665 52.6949 20.2665C54.2801 20.2665 55.4335 20.8698 56.2847 21.6519L57.6906 20.2826C56.5 19.1753 54.9161 18.3247 52.6949 18.3247C48.6747 18.3247 45.296 21.5108 45.296 25.4265C45.296 29.3421 48.6747 32.5282 52.6949 32.5282C54.8679 32.5282 56.5 31.8348 57.783 30.5341C59.0978 29.2535 59.5075 27.4528 59.5075 25.9989C59.5075 25.5474 59.4689 25.1322 59.3999 24.7855H52.6949ZM102.701 26.2918C102.313 25.2692 101.117 23.384 98.6807 23.384C96.2664 23.384 94.2563 25.237 94.2563 27.9567C94.2563 30.5179 96.2457 32.5282 98.9125 32.5282C101.069 32.5282 102.313 31.2476 102.825 30.5018L101.225 29.4631C100.691 30.2236 99.9638 30.7276 98.9125 30.7276C97.8681 30.7276 97.119 30.2613 96.6389 29.3421L102.918 26.8119L102.701 26.2918ZM96.2995 27.8143C96.2457 26.0513 97.7053 25.1483 98.7511 25.1483C99.5706 25.1483 100.266 25.5474 100.498 26.1185L96.2995 27.8143ZM91.1962 32.25H93.2602V18.8125H91.1962V32.25ZM87.8162 24.4025H87.7472C87.2836 23.8677 86.3993 23.384 85.279 23.384C82.9281 23.384 80.7787 25.3942 80.7787 27.9715C80.7787 30.5341 82.9281 32.5282 85.279 32.5282C86.3993 32.5282 87.2836 32.0404 87.7472 31.4895H87.8162V32.1452C87.8162 33.8934 86.8573 34.8327 85.3108 34.8327C84.0498 34.8327 83.2675 33.9458 82.9447 33.2001L81.1498 33.9297C81.6672 35.1418 83.0371 36.6333 85.3108 36.6333C87.7306 36.6333 89.7725 35.2466 89.7725 31.8724V23.6621H87.8162V24.4025ZM85.4556 30.7276C84.0332 30.7276 82.8426 29.5679 82.8426 27.9715C82.8426 26.3604 84.0332 25.1846 85.4556 25.1846C86.8573 25.1846 87.9624 26.3604 87.9624 27.9715C87.9624 29.5679 86.8573 30.7276 85.4556 30.7276ZM112.364 18.8125H107.428V32.25H109.486V27.1586H112.364C114.65 27.1586 116.892 25.5474 116.892 22.9849C116.892 20.4237 114.644 18.8125 112.364 18.8125ZM112.418 25.2894H109.486V20.6817H112.418C113.955 20.6817 114.832 21.9246 114.832 22.9849C114.832 24.0249 113.955 25.2894 112.418 25.2894ZM125.142 23.3584C123.655 23.3584 122.108 23.9981 121.472 25.4157L123.299 26.1615C123.692 25.4157 124.415 25.1738 125.179 25.1738C126.247 25.1738 127.33 25.7987 127.347 26.9019V27.043C126.974 26.8334 126.177 26.523 125.196 26.523C123.228 26.523 121.224 27.5778 121.224 29.5464C121.224 31.347 122.835 32.5067 124.647 32.5067C126.032 32.5067 126.796 31.898 127.276 31.1898H127.347V32.2285H129.335V27.0739C129.335 24.6914 127.508 23.3584 125.142 23.3584ZM124.894 30.7222C124.22 30.7222 123.282 30.397 123.282 29.584C123.282 28.544 124.452 28.1449 125.465 28.1449C126.371 28.1449 126.796 28.3397 127.347 28.5964C127.185 29.8407 126.086 30.7222 124.894 30.7222ZM136.578 23.6527L134.212 29.4779H134.141L131.695 23.6527H129.475L133.151 31.7931L131.054 36.3229H133.205L138.868 23.6527H136.578ZM118.023 32.25H120.087V18.8125H118.023V32.25Z" fill="black"/>
<path d="M11.5172 8.10414C11.1929 8.4347 11.0053 8.94936 11.0053 9.61586V33.3895C11.0053 34.056 11.1929 34.5706 11.5172 34.9012L11.5972 34.9738L25.2748 21.6572V21.3428L11.5972 8.02621L11.5172 8.10414Z" fill="url(#paint0_linear_5_33)"/>
<path d="M29.8289 26.0983L25.2748 21.6572V21.3428L29.8345 16.9017L29.9365 16.9594L35.3364 19.952C36.8775 20.8012 36.8775 22.1987 35.3364 23.0533L29.9365 26.0405L29.8289 26.0983Z" fill="url(#paint1_linear_5_33)"/>
<path d="M29.9366 26.0405L25.2748 21.5L11.5172 34.9012C12.029 35.4253 12.8637 35.4884 13.8129 34.9644L29.9366 26.0405Z" fill="url(#paint2_linear_5_33)"/>
<path d="M29.9366 16.9595L13.8129 8.03563C12.8637 7.51694 12.029 7.5801 11.5172 8.10416L25.2748 21.5L29.9366 16.9595Z" fill="url(#paint3_linear_5_33)"/>
<defs>
<linearGradient id="paint0_linear_5_33" x1="24.0604" y1="33.6371" x2="6.02559" y2="15.1207" gradientUnits="userSpaceOnUse">
<stop stop-color="#00A0FF"/>
<stop offset="0.0066" stop-color="#00A1FF"/>
<stop offset="0.2601" stop-color="#00BEFF"/>
<stop offset="0.5122" stop-color="#00D2FF"/>
<stop offset="0.7604" stop-color="#00DFFF"/>
<stop offset="1" stop-color="#00E3FF"/>
</linearGradient>
<linearGradient id="paint1_linear_5_33" x1="37.3431" y1="21.4985" x2="10.6369" y2="21.4985" gradientUnits="userSpaceOnUse">
<stop stop-color="#FFE000"/>
<stop offset="0.4087" stop-color="#FFBD00"/>
<stop offset="0.7754" stop-color="#FFA500"/>
<stop offset="1" stop-color="#FF9C00"/>
</linearGradient>
<linearGradient id="paint2_linear_5_33" x1="27.4017" y1="19.0317" x2="2.94497" y2="-6.078" gradientUnits="userSpaceOnUse">
<stop stop-color="#FF3A44"/>
<stop offset="1" stop-color="#C31162"/>
</linearGradient>
<linearGradient id="paint3_linear_5_33" x1="8.05406" y1="42.8106" x2="18.9751" y2="31.5981" gradientUnits="userSpaceOnUse">
<stop stop-color="#32A071"/>
<stop offset="0.0685" stop-color="#2DA771"/>
<stop offset="0.4762" stop-color="#15CF74"/>
<stop offset="0.8009" stop-color="#06E775"/>
<stop offset="1" stop-color="#00F076"/>
</linearGradient>
</defs>
</svg>
