<svg width="70" height="70" viewBox="0 0 70 70" fill="none" xmlns="http://www.w3.org/2000/svg">
<path d="M58.3333 45.2083C54.6875 45.2083 51.1875 44.625 47.9208 43.5458C46.9 43.225 45.7625 43.4583 44.9458 44.2458L38.5292 50.6625C30.275 46.4625 23.5083 39.725 19.3083 31.4417L25.725 24.9958C26.5417 24.2375 26.775 23.1 26.4542 22.0792C25.375 18.8125 24.7917 15.3125 24.7917 11.6667C24.7917 10.0625 23.4792 8.75 21.875 8.75H11.6667C10.0625 8.75 8.75 10.0625 8.75 11.6667C8.75 39.0542 30.9458 61.25 58.3333 61.25C59.9375 61.25 61.25 59.9375 61.25 58.3333V48.125C61.25 46.5208 59.9375 45.2083 58.3333 45.2083ZM55.4167 35H61.25C61.25 20.5042 49.4958 8.75 35 8.75V14.5833C46.2875 14.5833 55.4167 23.7125 55.4167 35ZM43.75 35H49.5833C49.5833 26.95 43.05 20.4167 35 20.4167V26.25C39.8417 26.25 43.75 30.1583 43.75 35Z" fill="#0096DB"/>
</svg>
