<svg xmlns="http://www.w3.org/2000/svg" width="24" height="24" fill="none" xmlns:v="https://vecta.io/nano"><path d="M12 9a3 3 0 0 0-3 3 3 3 0 0 0 3 3 3 3 0 0 0 3-3 3 3 0 0 0-3-3zm0-2a5 5 0 0 1 5 5 5 5 0 0 1-5 5 5 5 0 0 1-5-5 5 5 0 0 1 5-5zm6.5-.25A1.25 1.25 0 0 1 17.25 8 1.25 1.25 0 0 1 16 6.75a1.25 1.25 0 0 1 1.25-1.25 1.25 1.25 0 0 1 1.25 1.25zM12 4l-4.029.058c-.784.037-1.31.142-1.798.332-.434.168-.747.369-1.08.703a2.89 2.89 0 0 0-.704 1.08c-.19.49-.295 1.015-.331 1.798L4 12l.058 4.029c.037.783.142 1.31.331 1.797.17.435.37.748.702 1.08a2.9 2.9 0 0 0 1.08.703c.494.191 1.02.297 1.8.333L12 20l4.029-.058c.782-.037 1.309-.142 1.797-.331a2.92 2.92 0 0 0 1.08-.702 2.89 2.89 0 0 0 .704-1.08c.19-.493.296-1.02.332-1.8L20 12l-.058-4.029c-.037-.782-.142-1.31-.332-1.798a2.91 2.91 0 0 0-.703-1.08c-.302-.313-.672-.554-1.08-.704-.49-.19-1.016-.295-1.798-.331L12 4zm0-2l4.122.06c1.065.05 1.79.217 2.428.465.66.254 1.216.598 1.772 1.153.509.5.902 1.105 1.153 1.772.247.637.415 1.363.465 2.428L22 12l-.06 4.122c-.05 1.065-.218 1.79-.465 2.428-.25.668-.644 1.273-1.153 1.772-.5.508-1.105.902-1.772 1.153-.637.247-1.363.415-2.428.465L12 22c-2.717 0-3.056-.01-4.122-.06s-1.79-.218-2.428-.465a4.89 4.89 0 0 1-1.772-1.153c-.509-.5-.902-1.104-1.153-1.772-.248-.637-.415-1.363-.465-2.428L2 12l.06-4.122c.05-1.066.217-1.79.465-2.428a4.88 4.88 0 0 1 1.153-1.772c.5-.509 1.104-.902 1.772-1.153.638-.248 1.362-.415 2.428-.465L12 2z" fill="#000"/></svg>