<svg xmlns="http://www.w3.org/2000/svg" width="20" height="20" fill="none" xmlns:v="https://vecta.io/nano"><path d="M10 17.417l4.125-4.125a5.83 5.83 0 0 0 1.596-2.987c.225-1.132.11-2.304-.332-3.37S14.2 4.958 13.241 4.317 11.154 3.334 10 3.334s-2.281.342-3.241.983-1.707 1.552-2.148 2.618-.557 2.239-.332 3.37.781 2.171 1.596 2.987L10 17.417zm0 2.357L4.697 14.47a7.5 7.5 0 0 1-1.626-8.173A7.5 7.5 0 0 1 10 1.667a7.5 7.5 0 0 1 6.929 4.63 7.5 7.5 0 0 1-1.626 8.173L10 19.773zm0-8.94c.442 0 .866-.176 1.178-.488s.488-.736.488-1.179-.176-.866-.488-1.179S10.442 7.5 10 7.5s-.866.176-1.179.488-.488.736-.488 1.179.176.866.488 1.179.736.488 1.179.488zm0 1.667c-.884 0-1.732-.351-2.357-.976s-.976-1.473-.976-2.357.351-1.732.976-2.357S9.116 5.833 10 5.833s1.732.351 2.357.976.976 1.473.976 2.357-.351 1.732-.976 2.357-1.473.976-2.357.976z" fill="#000"/></svg>