<svg xmlns="http://www.w3.org/2000/svg" width="35" height="28" fill="none" xmlns:v="https://vecta.io/nano"><g fill="#ff0037"><path d="M25.666 6.833l-.262.242c-.738.449-1.524.786-2.374.953-.17.033-.361-.03-.54-.062-.019-.003-.024-.089-.025-.095-.606-.053-1.232-.164-1.853-.144-.612.019-1.219.177-1.831.26-.145.02-.324.03-.444-.035l-1.132-.663c.101.1.215.19.302.301.417.536.987.605 1.622.595a19.27 19.27 0 0 1 2.266.096c.542.055.927.379 1.108.916.266.79-.238 1.655-1.072 1.792-.373.061-.754.078-1.189.12l.223.162c-.626.264-1.006.882-1.689 1l-1.826.276-1.43.313-.614.152.38-.786-.063-.035-.367.695c-.093.198-.187.366-.451.365-.059 0-.11.135-.179.189l-1.028.795s-.021-.02-.017-.032c.216-.644-.006-1.099-.566-1.468-.32-.211-.589-.502-.855-.783-.079-.083-.127-.275-.083-.367.036-.075.23-.103.354-.104l1.758-.024-1.419-.066.007-.04 2.879-1.116c-1.072.027-1.426-.491-1.975-1.174l1.218-.236-.012-.082-2.041.199-.417.042c-.459.043-.474.033-.571-.445-.154.967-.983 1.07-1.636 1.38-.161.076-.338.122-.511.169-.481.13-.926.314-1.238.75l.23-.959-.066-.016-.289.993c-.194.739-.699 1.264-1.251 1.733-.139.118-.447.048-.678.046-.215-.002-.431-.055-.643-.04-.866.059-1.644-.715-1.577-1.622l.264.32c-.036-.295-.112-.618-.098-.936.006-.141.165-.357.298-.399 1.34-.421 2.472-1.19 3.563-2.093l.017.181c0 .051-.008.094.049.155.041-.182.108-.363.117-.546.018-.338.174-.57.484-.684.423-.155.738-.434.98-.798.282-.422.688-.611 1.189-.67l.206.573c.032-.046.048-.059.046-.068-.194-.572-.185-.587.422-.647l1.344-.124c.651.005 1.027-.384 1.367-.838.192-.256.433-.276.625-.017l.134.168c1.515-1.208 3.137-1.648 4.998-.958l-.273-.326.948-.288c.262-.094.53-.191.764-.337.543-.338.864-.798.721-1.523l.691.727c.362-.227.625-.082.649.371-.364.042-.452.306-.447.614.004.266-.002.544.07.796.137.478-.015.869-.315 1.209-.238.271-.532.497-.811.752.671-.271 1.049-.788 1.281-1.43.03-.082-.017-.192-.03-.288-.041-.314-.111-.627-.116-.942-.007-.473.221-.628.63-.415.196.102.278.042.391-.074l.176.61.087-.885-.259.281-.21.02c-.171-.334.035-.56.241-.768.226-.227.39-.47.409-.8a.26.26 0 0 1 .04-.103c.021-.031.047-.057.079-.077l.817-.422-.136-.089c.953-.394 1.795-.212 2.598.407V.383c.462.356.726.747.831 1.233l-.205-.089.043.437.06-.238.091-.025.326 1.016c-.169-.003-.323-.044-.433.006-.078.035-.098.196-.149.308-.128-.017-.128-.017-.366-.319-.008.181.037.447-.043.669-.179.494-.271.525-.817.397-.205-.048-.354-.05-.394.129l.69-.037c-.163.449-.422.726-.785.931-.345.195-.675.418-1.006.637a.55.55 0 0 1-.614.041c-.547-.279-.821-.729-.903-1.317-.018-.132-.057-.262-.086-.393l-.072.013.183 1.103-.794-.115c.333.196.774.158 1.011.574l-1.002-.098-.007.053.934.177c.387.082.789.132 1.152.277.224.089.401.317.566.51.043.05-.013.22-.07.306-.067.105-.183.178-.279.264zm-9.358-.602l.432.477c-.079-.184-.177-.342.015-.529.041-.04-.046-.207-.074-.317l-.072.018.067.284-.367.066zm.205 3.363l.032.086 1.656-.449-.01-.047-1.677.409zm-.454-4.72l-.08.086.611.473.047-.055-.578-.504zm3.229 1.675l-.021.053.819.371.038-.09-.835-.333z"/><path d="M12.455 13.755c-.049.365-.069.769-.172 1.146-.036.132-.277.286-.424.286-.805 0-.946-.057-1.268-.802-.072-.167-.283-.281-.323-.447-.126-.518-.205-1.049-.294-1.577-.019-.111.002-.228-.004-.341a.43.43 0 0 1 .302-.464 3.41 3.41 0 0 1 .557-.15c.264-.049.465.014.673.25.319.361.712.653 1.085.96.302.248.306.929-.012 1.152-.029.019-.087-.008-.12-.012zm-2.217-1.73h-.048l.104 1.103.048-.004-.103-1.098zM21.311 1.506l.519.194c-.104.537-.436.882-.883 1.069l-1.814.658c-.239.089-.43.027-.579-.174-.072-.096-.107-.226-.137-.292-1.105-.139-2.058-.586-2.97-1.22a1.17 1.17 0 0 1 .098-.107c.025-.022.059-.032.126-.069l-2.039.544-2.679.593c-.252.057-.478.128-.546.484-.029.153-.216.286-.355.393a7.85 7.85 0 0 1-.723.484c-.066.04-.16.023-.241.032.016-.096.006-.216.054-.288.1-.148.231-.272.33-.426-.414.069-.755.24-.965.654-.051.101-.172.16-.261.237l-.064-.056c.007-.091-.006-.192.025-.272a1.05 1.05 0 0 0 .037-.659c-.04-.172.139-.405.221-.612l-.4.083c.091-.51.571-1.003.959-.992.092.002.183.11.264.163.036-.02.125-.113.197-.1.731.133 1.361-.182 2.007-.48L14.366.099c.427-.18.841-.085 1.279.043.513.15 1.055.214 1.588.241.656.032 1.27.194 1.904.492l-.199.096c.034.014.052.03.064.026.85-.268 1.607-.049 2.305.502l.004.007zm2.932 7.321l.396 1.247c.363 1.065.885 1.986 1.889 2.47.14.068.257.196.385.297l-.035.054-.97-.626c.099.86.498 1.539.963 2.183l1.559 2.172c.225.323.161.7.04 1.039-.084.237-.24.311-.424.331l.684.011.354-.405.939.03c.246.275.534.228.796.406 0 0 .844-.031.978-.323a1.23 1.23 0 0 0-.127-.073l-1.252-.524c-.403-.207-.858-.37-1.061-.891l-.768-1.836c-.189-.432-.35-.894-.613-1.267-.372-.526-.648-1.077-.827-1.714-.171-.611-.314-1.25-.749-1.731-.023-.025-.047-.073-.041-.103.102-.509.03-1.001-.08-1.499-.108-.489-.55-.833-.496-1.389 0-.012-.028-.026-.041-.04l-.246.25c-.196.153-.372.343-.587.45l-1.655.755c.246.139.467.294.708.39.166.07.232.172.281.338zm-22.445 3.96l-.374-.256c.065-.148.113-.328.212-.469.424-.605.915-1.129 1.704-1.146.134-.003.305.104.403.212.172.192.3.425.464.667l-.422.069c.573-.118.938.346 1.435.516l-.873.373.265.145-1.007.857.004.009c-.131-.01-.264-.009-.394-.035l-1.206-.236-.212-.705zm.86-.534l-.057.071c.118.089.286.28.346.25.164-.084.283-.262.42-.403l-.061-.055-.351.367-.297-.23z"/></g><path d="M2.068 28H0V17.777h2.068v.864c.322-.417 1.034-1.081 2.39-1.081.645 0 1.677.139 2.508.896.542.494 1.102 1.328 1.102 2.656 0 1.513-.729 2.332-1.152 2.703-.559.479-1.407.865-2.492.865-.508 0-1.542-.077-2.356-1.081V28zm.491-8.324a1.71 1.71 0 0 0-.695 1.436c0 .618.271 1.127.677 1.452.271.216.712.448 1.354.448.677 0 1.119-.247 1.39-.479.441-.371.645-.927.645-1.421s-.221-1.05-.627-1.405c-.373-.309-.915-.479-1.407-.479-.539 0-.964.139-1.337.448zm7.637-2.116v3.642c0 .342.027.803.353 1.13a1.28 1.28 0 0 0 .841.327 1.28 1.28 0 0 0 .841-.327c.325-.327.353-.788.353-1.13V17.56h1.654v3.939c0 .58-.068 1.352-.719 1.977-.542.52-1.41.728-2.129.728s-1.587-.208-2.129-.728c-.651-.624-.719-1.397-.719-1.977V17.56h1.654zm5.466.208h1.89v.728a2.51 2.51 0 0 1 1.998-.936c1.41 0 1.952.848 2.122 1.174.324-.505.991-1.174 2.153-1.174 1.038 0 1.549.46 1.813.788.434.55.465 1.1.465 1.813v4.043h-1.89v-3.508c0-.758-.17-1.1-.31-1.263-.248-.297-.589-.327-.774-.327-.511 0-.837.223-1.038.566-.248.386-.263.906-.263 1.248v3.285h-1.89v-3.508c0-.758-.17-1.1-.31-1.263-.248-.297-.589-.327-.774-.327-.511 0-.837.223-1.038.566-.248.386-.263.906-.263 1.248v3.285h-1.89l.001-6.436zm16.561-.007h1.946v6.24h-1.946v-.807c-.702.908-1.627 1.009-2.122 1.009-2.122 0-3.525-1.499-3.525-3.329 0-1.845 1.388-3.315 3.429-3.315.527 0 1.563.086 2.217 1.009v-.807zm-3.637 3.113c0 .994.798 1.773 1.914 1.773s1.915-.778 1.915-1.773-.798-1.759-1.915-1.759-1.914.764-1.914 1.759z" fill="#000"/></svg>