<svg xmlns="http://www.w3.org/2000/svg" width="24" height="24" fill="none" xmlns:v="https://vecta.io/nano"><path d="M8.49 19.191a7.06 7.06 0 0 1 .144-1.001l.534-2.34.007-.03.387-1.668.181-.692a3.46 3.46 0 0 1-.284-1.423c0-1.337.756-2.373 1.736-2.373.36-.006.704.15.942.426s.348.644.302.996c0 .453-.085.798-.453 2.035l-.166.571-.132.522c-.096.386-.008.797.237 1.106a1.2 1.2 0 0 0 1.006.456c1.492 0 2.6-1.985 2.6-4.548 0-1.97-1.29-3.274-3.432-3.274A3.88 3.88 0 0 0 9.2 9.1a4.13 4.13 0 0 0-1.195 2.961c-.025.591.156 1.172.512 1.644.181.14.25.383.175.59l-.176.68a.41.41 0 0 1-.216.297.39.39 0 0 1-.355.002c-1.16-.479-1.796-1.778-1.796-3.44 0-2.985 2.491-5.584 6.192-5.584 3.135 0 5.481 2.329 5.481 5.14 0 3.532-1.932 6.104-4.69 6.104a2.51 2.51 0 0 1-2.046-.959l-.043.177-.207.852-.002.007-.288 1.174a7.29 7.29 0 0 1-.4 1.04 8 8 0 0 0 9.521-5.504 8 8 0 0 0-4.972-9.81A8 8 0 0 0 4.627 8.895 8 8 0 0 0 8.49 19.192v-.001zM12 22a10 10 0 1 1 0-20 10 10 0 1 1 0 20z" fill="#000"/></svg>