<svg xmlns="http://www.w3.org/2000/svg" width="24" height="24" fill="none" xmlns:v="https://vecta.io/nano"><g clip-path="url(#A)"><path d="M17.639 16.617l4.19 4.282-1.384 1.415-4.189-4.283c-1.559 1.277-3.497 1.972-5.495 1.969-4.86 0-8.804-4.032-8.804-9s3.944-9 8.804-9 8.804 4.032 8.804 9c.003 2.042-.677 4.024-1.926 5.617zm-1.962-.742A7.06 7.06 0 0 0 17.609 11c0-3.868-3.065-7-6.848-7s-6.848 3.132-6.848 7 3.064 7 6.848 7c1.781.003 3.492-.706 4.769-1.975l.147-.15z" fill="#000"/></g><defs><clipPath id="A"><path fill="#fff" d="M0 0h23.478v24H0z"/></clipPath></defs></svg>