<svg width="88" height="76" viewBox="0 0 88 76" fill="none" xmlns="http://www.w3.org/2000/svg">
<g filter="url(#filter0_d_3_291)">
<circle cx="63" cy="51" r="25" fill="white"/>
</g>
<path d="M67.6667 50.3333H63.6667V46.3333C63.6667 46.1565 63.5964 45.9869 63.4714 45.8619C63.3464 45.7369 63.1768 45.6667 63 45.6667C62.8232 45.6667 62.6536 45.7369 62.5286 45.8619C62.4036 45.9869 62.3333 46.1565 62.3333 46.3333V50.3333H58.3333C58.1565 50.3333 57.9869 50.4036 57.8619 50.5286C57.7369 50.6536 57.6667 50.8232 57.6667 51C57.6667 51.1768 57.7369 51.3464 57.8619 51.4714C57.9869 51.5964 58.1565 51.6667 58.3333 51.6667H62.3333V55.6667C62.3333 55.8435 62.4036 56.013 62.5286 56.1381C62.6536 56.2631 62.8232 56.3333 63 56.3333C63.1768 56.3333 63.3464 56.2631 63.4714 56.1381C63.5964 56.013 63.6667 55.8435 63.6667 55.6667V51.6667H67.6667C67.8435 51.6667 68.013 51.5964 68.1381 51.4714C68.2631 51.3464 68.3333 51.1768 68.3333 51C68.3333 50.8232 68.2631 50.6536 68.1381 50.5286C68.013 50.4036 67.8435 50.3333 67.6667 50.3333Z" fill="#1754F2"/>
<defs>
<filter id="filter0_d_3_291" x="0" y="0" width="118" height="118" filterUnits="userSpaceOnUse" color-interpolation-filters="sRGB">
<feFlood flood-opacity="0" result="BackgroundImageFix"/>
<feColorMatrix in="SourceAlpha" type="matrix" values="0 0 0 0 0 0 0 0 0 0 0 0 0 0 0 0 0 0 127 0" result="hardAlpha"/>
<feOffset dx="-4" dy="8"/>
<feGaussianBlur stdDeviation="17"/>
<feComposite in2="hardAlpha" operator="out"/>
<feColorMatrix type="matrix" values="0 0 0 0 0.0901961 0 0 0 0 0.329412 0 0 0 0 0.94902 0 0 0 0.1 0"/>
<feBlend mode="normal" in2="BackgroundImageFix" result="effect1_dropShadow_3_291"/>
<feBlend mode="normal" in="SourceGraphic" in2="effect1_dropShadow_3_291" result="shape"/>
</filter>
</defs>
</svg>
