<svg width="92" height="46" viewBox="0 0 92 46" fill="none" xmlns="http://www.w3.org/2000/svg">
<rect width="92" height="46" rx="8" fill="#1754F2"/>
<path d="M25.981 31L28.317 22.168C28.445 21.6987 28.477 21.24 28.413 20.792C28.349 20.3227 28.1997 19.8853 27.965 19.48C27.709 19.0533 27.2823 18.7333 26.685 18.52C26.0877 18.3067 25.3197 18.2 24.381 18.2C24.2317 18.2 24.0717 18.2107 23.901 18.232C23.7303 18.2533 23.549 18.2853 23.357 18.328C23.1437 18.3493 22.9303 18.392 22.717 18.456C22.525 18.52 22.3223 18.6053 22.109 18.712C21.7037 18.8613 21.2983 19.0747 20.893 19.352C20.509 19.608 20.1357 19.9173 19.773 20.28C19.389 20.6213 19.037 21.048 18.717 21.56C18.4183 22.0507 18.173 22.616 17.981 23.256C17.7463 24.1093 17.661 24.856 17.725 25.496C17.789 26.1147 18.0023 26.6373 18.365 27.064C18.7277 27.4693 19.1437 27.8 19.613 28.056C20.0823 28.2907 20.5943 28.44 21.149 28.504C21.1703 28.504 21.1917 28.504 21.213 28.504C21.2343 28.504 21.2663 28.504 21.309 28.504C21.3303 28.5253 21.3517 28.536 21.373 28.536C21.4157 28.536 21.4477 28.536 21.469 28.536C21.5117 28.536 21.5437 28.536 21.565 28.536C21.5863 28.536 21.6183 28.536 21.661 28.536C21.6823 28.536 21.7037 28.536 21.725 28.536C21.7677 28.536 21.7997 28.536 21.821 28.536C22.077 28.536 22.3223 28.5253 22.557 28.504C22.813 28.4613 23.0477 28.3973 23.261 28.312C23.4743 28.248 23.6983 28.1627 23.933 28.056C24.1677 27.928 24.4023 27.7893 24.637 27.64C24.7437 27.576 24.861 27.5013 24.989 27.416C25.117 27.3093 25.245 27.2133 25.373 27.128C25.501 27.0213 25.629 26.9253 25.757 26.84C25.885 26.7333 26.0237 26.6267 26.173 26.52L25.245 30.008C25.245 30.0293 25.2343 30.0507 25.213 30.072C25.1917 30.072 25.1703 30.0827 25.149 30.104C25.149 30.1253 25.149 30.136 25.149 30.136C24.8503 30.3067 24.541 30.4667 24.221 30.616C23.901 30.744 23.581 30.8613 23.261 30.968C22.9197 31.0533 22.525 31.1173 22.077 31.16C21.6503 31.224 21.1597 31.256 20.605 31.256C20.5837 31.256 20.5623 31.256 20.541 31.256C20.541 31.256 20.5303 31.256 20.509 31.256C20.4877 31.256 20.4663 31.256 20.445 31.256C20.4237 31.256 20.413 31.256 20.413 31.256C20.3917 31.256 20.3703 31.256 20.349 31.256C20.3277 31.256 20.3063 31.256 20.285 31.256C20.2637 31.256 20.2423 31.256 20.221 31.256C20.221 31.256 20.2103 31.256 20.189 31.256C19.2077 31.256 18.3437 31.0853 17.597 30.744C16.8503 30.3813 16.2317 29.8373 15.741 29.112C15.229 28.3653 14.9197 27.512 14.813 26.552C14.7277 25.5707 14.8557 24.472 15.197 23.256C15.4957 22.1893 15.933 21.1973 16.509 20.28C17.085 19.3627 17.821 18.52 18.717 17.752C19.5917 16.984 20.5837 16.408 21.693 16.024C22.8023 15.64 24.0183 15.448 25.341 15.448C26.5997 15.448 27.6663 15.6187 28.541 15.96C29.437 16.3013 30.1303 16.8133 30.621 17.496C31.1117 18.1787 31.421 18.904 31.549 19.672C31.6983 20.4187 31.6557 21.1973 31.421 22.008L29.021 31H25.981ZM49.264 8.824H52.304L48.464 23.192C48.4427 23.2347 48.432 23.2667 48.432 23.288C48.432 23.3093 48.432 23.3307 48.432 23.352C48.4107 23.3733 48.4 23.3947 48.4 23.416C48.4 23.4373 48.4107 23.4587 48.432 23.48C48.4107 23.5013 48.4 23.5227 48.4 23.544C48.4 23.544 48.4 23.5547 48.4 23.576C48.3787 23.5973 48.368 23.6187 48.368 23.64C48.368 23.6613 48.368 23.6827 48.368 23.704C48.304 23.9173 48.2187 24.152 48.112 24.408C48.0267 24.664 47.9093 24.9413 47.76 25.24C47.6107 25.5173 47.4507 25.816 47.28 26.136C47.1307 26.4347 46.9493 26.7333 46.736 27.032C46.3307 27.608 45.8613 28.152 45.328 28.664C44.7947 29.176 44.1973 29.6667 43.536 30.136C42.8747 30.6053 42.1493 30.9467 41.36 31.16C40.5707 31.3947 39.7173 31.512 38.8 31.512C38.7787 31.512 38.7467 31.512 38.704 31.512C38.6827 31.512 38.6507 31.512 38.608 31.512C38.5867 31.512 38.5547 31.512 38.512 31.512C38.4907 31.512 38.4587 31.512 38.416 31.512C37.1573 31.448 36.1013 31.2453 35.248 30.904C34.416 30.5627 33.7867 30.0613 33.36 29.4C32.9547 28.7387 32.6667 28.0453 32.496 27.32C32.3467 26.5947 32.336 25.8373 32.464 25.048C32.4427 24.9413 32.4427 24.8347 32.464 24.728C32.4853 24.6213 32.5067 24.5147 32.528 24.408C32.5493 24.3653 32.56 24.3227 32.56 24.28C32.5813 24.216 32.6027 24.152 32.624 24.088C32.624 24.0453 32.624 24.0027 32.624 23.96C32.6453 23.896 32.6667 23.832 32.688 23.768C32.7093 23.7467 32.72 23.736 32.72 23.736C32.72 23.7147 32.72 23.6933 32.72 23.672C32.72 23.6507 32.7307 23.6293 32.752 23.608C32.752 23.5867 32.752 23.5653 32.752 23.544C32.752 23.5227 32.7627 23.5013 32.784 23.48C32.784 23.4587 32.784 23.448 32.784 23.448C32.784 23.4267 32.7947 23.4053 32.816 23.384C32.816 23.3627 32.816 23.3413 32.816 23.32C33.072 22.3173 33.4347 21.4213 33.904 20.632C34.3733 19.8213 34.9387 19.1173 35.6 18.52C35.9413 18.2213 36.2827 17.9547 36.624 17.72C36.9653 17.464 37.3067 17.2293 37.648 17.016C37.968 16.824 38.2987 16.6533 38.64 16.504C38.9813 16.3333 39.3227 16.1947 39.664 16.088C39.856 16.024 40.048 15.9707 40.24 15.928C40.432 15.864 40.624 15.8213 40.816 15.8C41.008 15.7573 41.1893 15.736 41.36 15.736C41.552 15.7147 41.7333 15.704 41.904 15.704C42.5867 15.704 43.1733 15.736 43.664 15.8C44.1547 15.8427 44.5387 15.9173 44.816 16.024C45.1147 16.1093 45.3813 16.216 45.616 16.344C45.8507 16.4507 46.0427 16.568 46.192 16.696L45.36 19.672C45.3387 19.672 45.296 19.6613 45.232 19.64C45.1893 19.5973 45.1467 19.5653 45.104 19.544C45.0827 19.5227 45.0507 19.5013 45.008 19.48C44.9867 19.4587 44.9547 19.4373 44.912 19.416C44.8907 19.416 44.8587 19.4053 44.816 19.384C44.7947 19.3627 44.7733 19.3413 44.752 19.32C44.5387 19.2133 44.304 19.1173 44.048 19.032C43.8133 18.9253 43.5467 18.8293 43.248 18.744C42.9707 18.6373 42.672 18.5627 42.352 18.52C42.0533 18.4773 41.744 18.456 41.424 18.456C41.3813 18.456 41.3387 18.456 41.296 18.456C41.2533 18.456 41.2107 18.456 41.168 18.456C41.1467 18.456 41.1253 18.456 41.104 18.456C41.0827 18.456 41.0613 18.456 41.04 18.456C41.0187 18.4773 40.9973 18.488 40.976 18.488C40.9547 18.488 40.9333 18.488 40.912 18.488C40.3787 18.552 39.8453 18.712 39.312 18.968C38.7787 19.224 38.2453 19.5653 37.712 19.992C37.1787 20.4187 36.72 20.9307 36.336 21.528C35.9733 22.104 35.6853 22.7653 35.472 23.512C35.472 23.5333 35.472 23.5547 35.472 23.576C35.472 23.5973 35.4613 23.6187 35.44 23.64C35.44 23.6613 35.44 23.6827 35.44 23.704C35.44 23.7253 35.44 23.7467 35.44 23.768C35.44 23.7893 35.44 23.8107 35.44 23.832C35.44 23.8533 35.4293 23.8747 35.408 23.896C35.408 23.9173 35.408 23.9387 35.408 23.96C35.3867 23.9813 35.376 24.0027 35.376 24.024C35.2693 24.7493 35.248 25.3787 35.312 25.912C35.376 26.424 35.5253 26.8507 35.76 27.192C35.9947 27.5333 36.2507 27.8107 36.528 28.024C36.8053 28.2373 37.1253 28.3973 37.488 28.504C37.6587 28.568 37.8187 28.6213 37.968 28.664C38.1387 28.7067 38.3093 28.7387 38.48 28.76C38.6293 28.7813 38.7787 28.792 38.928 28.792C39.0987 28.792 39.2587 28.792 39.408 28.792C40.2187 28.792 40.9547 28.632 41.616 28.312C42.2987 27.992 42.9067 27.5013 43.44 26.84C43.9307 26.2 44.368 25.496 44.752 24.728C45.136 23.96 45.4453 23.128 45.68 22.232L49.264 8.824ZM67.139 8.824H70.179L66.339 23.192C66.3177 23.2347 66.307 23.2667 66.307 23.288C66.307 23.3093 66.307 23.3307 66.307 23.352C66.2857 23.3733 66.275 23.3947 66.275 23.416C66.275 23.4373 66.2857 23.4587 66.307 23.48C66.2857 23.5013 66.275 23.5227 66.275 23.544C66.275 23.544 66.275 23.5547 66.275 23.576C66.2537 23.5973 66.243 23.6187 66.243 23.64C66.243 23.6613 66.243 23.6827 66.243 23.704C66.179 23.9173 66.0937 24.152 65.987 24.408C65.9017 24.664 65.7843 24.9413 65.635 25.24C65.4857 25.5173 65.3257 25.816 65.155 26.136C65.0057 26.4347 64.8243 26.7333 64.611 27.032C64.2057 27.608 63.7363 28.152 63.203 28.664C62.6697 29.176 62.0723 29.6667 61.411 30.136C60.7497 30.6053 60.0243 30.9467 59.235 31.16C58.4457 31.3947 57.5923 31.512 56.675 31.512C56.6537 31.512 56.6217 31.512 56.579 31.512C56.5577 31.512 56.5257 31.512 56.483 31.512C56.4617 31.512 56.4297 31.512 56.387 31.512C56.3657 31.512 56.3337 31.512 56.291 31.512C55.0323 31.448 53.9763 31.2453 53.123 30.904C52.291 30.5627 51.6617 30.0613 51.235 29.4C50.8297 28.7387 50.5417 28.0453 50.371 27.32C50.2217 26.5947 50.211 25.8373 50.339 25.048C50.3177 24.9413 50.3177 24.8347 50.339 24.728C50.3603 24.6213 50.3817 24.5147 50.403 24.408C50.4243 24.3653 50.435 24.3227 50.435 24.28C50.4563 24.216 50.4777 24.152 50.499 24.088C50.499 24.0453 50.499 24.0027 50.499 23.96C50.5203 23.896 50.5417 23.832 50.563 23.768C50.5843 23.7467 50.595 23.736 50.595 23.736C50.595 23.7147 50.595 23.6933 50.595 23.672C50.595 23.6507 50.6057 23.6293 50.627 23.608C50.627 23.5867 50.627 23.5653 50.627 23.544C50.627 23.5227 50.6377 23.5013 50.659 23.48C50.659 23.4587 50.659 23.448 50.659 23.448C50.659 23.4267 50.6697 23.4053 50.691 23.384C50.691 23.3627 50.691 23.3413 50.691 23.32C50.947 22.3173 51.3097 21.4213 51.779 20.632C52.2483 19.8213 52.8137 19.1173 53.475 18.52C53.8163 18.2213 54.1577 17.9547 54.499 17.72C54.8403 17.464 55.1817 17.2293 55.523 17.016C55.843 16.824 56.1737 16.6533 56.515 16.504C56.8563 16.3333 57.1977 16.1947 57.539 16.088C57.731 16.024 57.923 15.9707 58.115 15.928C58.307 15.864 58.499 15.8213 58.691 15.8C58.883 15.7573 59.0643 15.736 59.235 15.736C59.427 15.7147 59.6083 15.704 59.779 15.704C60.4617 15.704 61.0483 15.736 61.539 15.8C62.0297 15.8427 62.4137 15.9173 62.691 16.024C62.9897 16.1093 63.2563 16.216 63.491 16.344C63.7257 16.4507 63.9177 16.568 64.067 16.696L63.235 19.672C63.2137 19.672 63.171 19.6613 63.107 19.64C63.0643 19.5973 63.0217 19.5653 62.979 19.544C62.9577 19.5227 62.9257 19.5013 62.883 19.48C62.8617 19.4587 62.8297 19.4373 62.787 19.416C62.7657 19.416 62.7337 19.4053 62.691 19.384C62.6697 19.3627 62.6483 19.3413 62.627 19.32C62.4137 19.2133 62.179 19.1173 61.923 19.032C61.6883 18.9253 61.4217 18.8293 61.123 18.744C60.8457 18.6373 60.547 18.5627 60.227 18.52C59.9283 18.4773 59.619 18.456 59.299 18.456C59.2563 18.456 59.2137 18.456 59.171 18.456C59.1283 18.456 59.0857 18.456 59.043 18.456C59.0217 18.456 59.0003 18.456 58.979 18.456C58.9577 18.456 58.9363 18.456 58.915 18.456C58.8937 18.4773 58.8723 18.488 58.851 18.488C58.8297 18.488 58.8083 18.488 58.787 18.488C58.2537 18.552 57.7203 18.712 57.187 18.968C56.6537 19.224 56.1203 19.5653 55.587 19.992C55.0537 20.4187 54.595 20.9307 54.211 21.528C53.8483 22.104 53.5603 22.7653 53.347 23.512C53.347 23.5333 53.347 23.5547 53.347 23.576C53.347 23.5973 53.3363 23.6187 53.315 23.64C53.315 23.6613 53.315 23.6827 53.315 23.704C53.315 23.7253 53.315 23.7467 53.315 23.768C53.315 23.7893 53.315 23.8107 53.315 23.832C53.315 23.8533 53.3043 23.8747 53.283 23.896C53.283 23.9173 53.283 23.9387 53.283 23.96C53.2617 23.9813 53.251 24.0027 53.251 24.024C53.1443 24.7493 53.123 25.3787 53.187 25.912C53.251 26.424 53.4003 26.8507 53.635 27.192C53.8697 27.5333 54.1257 27.8107 54.403 28.024C54.6803 28.2373 55.0003 28.3973 55.363 28.504C55.5337 28.568 55.6937 28.6213 55.843 28.664C56.0137 28.7067 56.1843 28.7387 56.355 28.76C56.5043 28.7813 56.6537 28.792 56.803 28.792C56.9737 28.792 57.1337 28.792 57.283 28.792C58.0937 28.792 58.8297 28.632 59.491 28.312C60.1737 27.992 60.7817 27.5013 61.315 26.84C61.8057 26.2 62.243 25.496 62.627 24.728C63.011 23.96 63.3203 23.128 63.555 22.232L67.139 8.824ZM67.254 28.216H73.782C73.8247 28.2587 73.8673 28.28 73.91 28.28C73.9527 28.28 73.9953 28.28 74.038 28.28C74.0807 28.28 74.1233 28.28 74.166 28.28C74.2087 28.28 74.2513 28.28 74.294 28.28C74.3153 28.3013 74.3473 28.312 74.39 28.312C74.4327 28.312 74.4753 28.312 74.518 28.312C74.5607 28.312 74.6033 28.312 74.646 28.312C74.6887 28.312 74.7313 28.312 74.774 28.312C75.03 28.312 75.2753 28.3013 75.51 28.28C75.766 28.2373 76.0007 28.1733 76.214 28.088C76.4487 28.024 76.6407 27.9067 76.79 27.736C76.9393 27.544 77.0567 27.3093 77.142 27.032C77.2273 26.7333 77.2167 26.4667 77.11 26.232C77.0247 25.9973 76.8433 25.7947 76.566 25.624C76.2887 25.4533 75.958 25.2933 75.574 25.144C75.2113 24.9947 74.806 24.8453 74.358 24.696C74.23 24.6533 74.102 24.6213 73.974 24.6C73.846 24.5573 73.718 24.5253 73.59 24.504C73.462 24.4613 73.334 24.4187 73.206 24.376C73.078 24.3333 72.95 24.2907 72.822 24.248C72.182 24.0773 71.6273 23.8533 71.158 23.576C70.6887 23.2987 70.294 22.9893 69.974 22.648C69.654 22.2853 69.462 21.8693 69.398 21.4C69.334 20.9093 69.3767 20.3547 69.526 19.736C69.7607 18.8613 70.102 18.1467 70.55 17.592C70.998 17.016 71.5527 16.6213 72.214 16.408C72.8753 16.1733 73.5687 16.0027 74.294 15.896C75.0407 15.768 75.83 15.704 76.662 15.704L82.454 15.64L81.782 18.136H75.734C75.35 18.1787 74.9873 18.2213 74.646 18.264C74.3047 18.3067 73.9847 18.3707 73.686 18.456C73.3873 18.5413 73.1527 18.6693 72.982 18.84C72.8113 19.0107 72.6833 19.224 72.598 19.48C72.5127 19.7573 72.5127 20.0133 72.598 20.248C72.6833 20.4613 72.8433 20.6427 73.078 20.792C73.3127 20.9413 73.5687 21.08 73.846 21.208C74.1233 21.3147 74.422 21.4213 74.742 21.528C74.7847 21.5493 74.8273 21.5707 74.87 21.592C74.9127 21.592 74.966 21.592 75.03 21.592C75.0727 21.6133 75.1153 21.6347 75.158 21.656C75.2007 21.656 75.2433 21.656 75.286 21.656C75.3713 21.6773 75.4567 21.6987 75.542 21.72C75.6273 21.7413 75.7127 21.7627 75.798 21.784C75.8407 21.8053 75.894 21.8267 75.958 21.848C76.022 21.8693 76.086 21.8907 76.15 21.912C76.1927 21.912 76.2247 21.9227 76.246 21.944C76.2673 21.944 76.2887 21.944 76.31 21.944C76.3313 21.9653 76.3527 21.9867 76.374 22.008C76.4167 22.008 76.4487 22.008 76.47 22.008C77.3447 22.328 78.0593 22.6587 78.614 23C79.1687 23.3413 79.5847 23.6933 79.862 24.056C80.118 24.4187 80.2673 24.856 80.31 25.368C80.374 25.8587 80.3207 26.4133 80.15 27.032C79.9367 27.736 79.6593 28.3333 79.318 28.824C78.998 29.2933 78.6247 29.6667 78.198 29.944C77.9847 30.0933 77.7607 30.2213 77.526 30.328C77.3127 30.4347 77.0993 30.5307 76.886 30.616C76.6727 30.7013 76.4487 30.776 76.214 30.84C76.0007 30.8827 75.7873 30.9253 75.574 30.968C75.4247 30.9893 75.2753 31 75.126 31C74.998 31 74.87 31 74.742 31C74.6993 31 74.6567 31 74.614 31C74.5713 31 74.5287 31 74.486 31C74.4647 31 74.4433 31 74.422 31C74.4007 31 74.3793 31.0107 74.358 31.032C74.294 31.032 74.23 31.032 74.166 31.032C74.102 31.032 74.038 31.032 73.974 31.032C73.91 31.032 73.846 31.032 73.782 31.032C73.7393 31.032 73.6967 31.032 73.654 31.032C73.59 31.032 73.526 31.032 73.462 31.032C73.4193 31.032 73.3767 31.032 73.334 31.032C73.2913 31.0107 73.238 31 73.174 31C73.1313 31 73.0887 31 73.046 31C73.0033 31 72.9607 31 72.918 31C72.8753 31 72.8327 31 72.79 31H66.518L67.254 28.216Z" fill="white"/>
</svg>
