<svg width="20" height="20" viewBox="0 0 20 20" fill="none" xmlns="http://www.w3.org/2000/svg">
<path d="M20 10.0003C19.9999 10.1859 19.9481 10.3679 19.8504 10.5258C19.7528 10.6837 19.6131 10.8113 19.447 10.8943L1.447 19.8943C1.27807 19.9786 1.08874 20.0133 0.900897 19.9945C0.713054 19.9757 0.534375 19.9041 0.385522 19.7879C0.236669 19.6718 0.123723 19.516 0.0597469 19.3383C-0.00422943 19.1607 -0.0166234 18.9686 0.0239993 18.7843L1.976 10.0003L0.0240001 1.21728C-0.016861 1.03285 -0.00464634 0.840613 0.0592308 0.662836C0.123108 0.485058 0.236032 0.32901 0.38493 0.212759C0.533827 0.0965074 0.712608 0.0248088 0.90057 0.0059644C1.08853 -0.01288 1.27799 0.0219006 1.447 0.106279L19.447 9.10628C19.6131 9.18927 19.7528 9.31686 19.8504 9.47475C19.9481 9.63265 19.9999 9.81462 20 10.0003ZM3.802 11.0003L2.432 17.1663L14.764 11.0003L3.802 11.0003ZM14.764 9.00028L2.432 2.83428L3.802 9.00028L14.764 9.00028Z" fill="white"/>
</svg>
