<svg width="16" height="16" viewBox="0 0 16 16" fill="none" xmlns="http://www.w3.org/2000/svg">
<path d="M7.99972 1.33301C11.6822 1.33301 14.6675 4.31824 14.6675 8.00073C14.6675 11.6832 11.6822 14.6684 7.99972 14.6684C4.31726 14.6684 1.33203 11.6832 1.33203 8.00073C1.33203 4.31824 4.31726 1.33301 7.99972 1.33301ZM7.99972 2.33301C4.86955 2.33301 2.33203 4.87053 2.33203 8.00073C2.33203 11.1309 4.86955 13.6684 7.99972 13.6684C11.1299 13.6684 13.6675 11.1309 13.6675 8.00073C13.6675 4.87053 11.1299 2.33301 7.99972 2.33301ZM5.64089 9.85626C6.20698 10.5747 7.06765 11.0017 7.99972 11.0017C8.93052 11.0017 9.79018 10.5759 10.3564 9.85906C10.5275 9.64233 10.8419 9.6054 11.0587 9.7766C11.2753 9.94773 11.3122 10.2621 11.1411 10.4789C10.3872 11.4333 9.23985 12.0017 7.99972 12.0017C6.75798 12.0017 5.60914 11.4318 4.85541 10.4751C4.68451 10.2583 4.7218 9.94386 4.93871 9.77293C5.15562 9.60206 5.47 9.63933 5.64089 9.85626ZM6.00003 5.83447C6.46001 5.83447 6.83292 6.20735 6.83292 6.66733C6.83292 7.12733 6.46001 7.50019 6.00003 7.50019C5.54006 7.50019 5.16717 7.12733 5.16717 6.66733C5.16717 6.20735 5.54006 5.83447 6.00003 5.83447ZM10.0001 5.83447C10.46 5.83447 10.8329 6.20735 10.8329 6.66733C10.8329 7.12733 10.46 7.50019 10.0001 7.50019C9.54005 7.50019 9.16718 7.12733 9.16718 6.66733C9.16718 6.20735 9.54005 5.83447 10.0001 5.83447Z" fill="#1754F2"/>
</svg>
