<svg width="44" height="41" viewBox="0 0 44 41" fill="none" xmlns="http://www.w3.org/2000/svg">
<path fill-rule="evenodd" clip-rule="evenodd" d="M39.2668 15.6152C38.6887 13.5425 36.1519 13 34 13C30.134 13 27 9.86599 27 6C27 4.10625 26.3602 1.9375 24.5149 1.51172C23.064 1.17693 21.5527 1 20 1C8.95431 1 0 9.95431 0 21C0 32.0457 8.95431 41 20 41C31.0457 41 40 32.0457 40 21C40 19.1344 39.7446 17.3285 39.2668 15.6152Z" fill="#F9F9F9"/>
<g filter="url(#filter0_d_15_61)">
<circle cx="34" cy="6" r="4" fill="#F23636"/>
</g>
<path d="M22.4733 21.4733C23.1269 20.9591 23.604 20.254 23.8382 19.456C24.0723 18.658 24.0519 17.8069 23.7799 17.021C23.5078 16.2351 22.9975 15.5536 22.32 15.0712C21.6426 14.5889 20.8316 14.3297 20 14.3297C19.1684 14.3297 18.3574 14.5889 17.68 15.0712C17.0025 15.5536 16.4922 16.2351 16.2201 17.021C15.9481 17.8069 15.9277 18.658 16.1618 19.456C16.396 20.254 16.8731 20.9591 17.5267 21.4733C16.4067 21.922 15.4295 22.6662 14.6993 23.6266C13.969 24.587 13.513 25.7275 13.38 26.9267C13.3704 27.0142 13.3781 27.1028 13.4027 27.1874C13.4273 27.272 13.4683 27.3508 13.5234 27.4196C13.6347 27.5583 13.7965 27.6472 13.9733 27.6667C14.1501 27.6861 14.3274 27.6345 14.4662 27.5233C14.605 27.412 14.6939 27.2502 14.7133 27.0733C14.8597 25.7701 15.4811 24.5666 16.4588 23.6925C17.4365 22.8185 18.7019 22.3354 20.0133 22.3354C21.3247 22.3354 22.5902 22.8185 23.5679 23.6925C24.5455 24.5666 25.1669 25.7701 25.3133 27.0733C25.3315 27.2372 25.4096 27.3884 25.5327 27.498C25.6559 27.6076 25.8152 27.6677 25.98 27.6667H26.0533C26.2281 27.6466 26.3878 27.5582 26.4977 27.4208C26.6076 27.2835 26.6587 27.1083 26.64 26.9333C26.5063 25.7308 26.0479 24.5873 25.3139 23.6255C24.5799 22.6636 23.5979 21.9197 22.4733 21.4733ZM20 21C19.4726 21 18.957 20.8436 18.5185 20.5506C18.0799 20.2576 17.7382 19.8411 17.5363 19.3538C17.3345 18.8666 17.2817 18.3304 17.3846 17.8131C17.4875 17.2958 17.7414 16.8207 18.1144 16.4477C18.4873 16.0748 18.9625 15.8208 19.4798 15.7179C19.997 15.615 20.5332 15.6678 21.0205 15.8697C21.5078 16.0715 21.9242 16.4133 22.2173 16.8518C22.5103 17.2904 22.6667 17.8059 22.6667 18.3333C22.6667 19.0406 22.3857 19.7189 21.8856 20.219C21.3855 20.7191 20.7072 21 20 21Z" fill="#14191F"/>
<defs>
<filter id="filter0_d_15_61" x="24" y="0" width="20" height="20" filterUnits="userSpaceOnUse" color-interpolation-filters="sRGB">
<feFlood flood-opacity="0" result="BackgroundImageFix"/>
<feColorMatrix in="SourceAlpha" type="matrix" values="0 0 0 0 0 0 0 0 0 0 0 0 0 0 0 0 0 0 127 0" result="hardAlpha"/>
<feOffset dy="4"/>
<feGaussianBlur stdDeviation="3"/>
<feComposite in2="hardAlpha" operator="out"/>
<feColorMatrix type="matrix" values="0 0 0 0 0.94902 0 0 0 0 0.211765 0 0 0 0 0.211765 0 0 0 0.38 0"/>
<feBlend mode="normal" in2="BackgroundImageFix" result="effect1_dropShadow_15_61"/>
<feBlend mode="normal" in="SourceGraphic" in2="effect1_dropShadow_15_61" result="shape"/>
</filter>
</defs>
</svg>
