<svg width="169" height="24" viewBox="0 0 169 24" fill="none" xmlns="http://www.w3.org/2000/svg">
<path d="M165.482 23.8442L163.339 20.4231C162.941 19.7897 162.589 19.3588 162.282 19.1356C161.975 18.9124 161.537 18.8033 160.973 18.8033H160.103V23.8442H156.937V5.85071H160.103V15.6729H160.878C161.441 15.6729 161.874 15.5639 162.176 15.3406C162.473 15.1174 162.825 14.6917 163.223 14.0532L165.165 10.9954H168.678L165.885 15.3406C165.256 16.353 164.662 16.976 164.114 17.2199C164.677 17.4068 165.311 18.0506 166.006 19.146L168.995 23.8494H165.482V23.8442ZM147.245 10.8137C149.006 10.8137 150.35 11.3744 151.281 12.4957C152.212 13.6171 152.675 15.1382 152.675 17.059V23.8442H149.509V17.2667C149.509 15.0707 148.588 13.9753 146.742 13.9753C145.795 13.9753 145.066 14.2712 144.547 14.863C144.034 15.4549 143.772 16.3478 143.772 17.547V23.8442H140.607V10.9902H142.726L142.952 12.9941C143.818 11.5405 145.247 10.8137 147.245 10.8137ZM130.22 20.8384C131.086 20.8384 131.835 20.5217 132.474 19.8883C133.114 19.255 133.436 18.4296 133.436 17.4224C133.436 16.4101 133.114 15.5846 132.474 14.9409C131.835 14.2972 131.086 13.9753 130.22 13.9753C129.354 13.9753 128.605 14.2972 127.965 14.9409C127.326 15.5846 127.004 16.4101 127.004 17.4224C127.004 18.4347 127.321 19.255 127.95 19.8883C128.584 20.5217 129.339 20.8384 130.22 20.8384ZM136.355 23.8442H134.236L134.06 22.0168C133.048 23.3355 131.669 23.9948 129.923 23.9948C128.177 23.9948 126.727 23.3614 125.575 22.0947C124.423 20.828 123.844 19.2654 123.844 17.4172C123.844 15.5639 124.423 14.0013 125.575 12.7242C126.727 11.4471 128.177 10.8085 129.923 10.8085C131.669 10.8085 133.048 11.4782 134.06 12.8124L134.236 10.985H136.355V23.8442ZM116.949 14.9357C116.31 14.292 115.56 13.9701 114.695 13.9701C113.829 13.9701 113.079 14.292 112.44 14.9357C111.801 15.5795 111.479 16.4049 111.479 17.4172C111.479 18.4296 111.801 19.2498 112.44 19.8832C113.079 20.5165 113.829 20.8332 114.695 20.8332C115.576 20.8332 116.33 20.5165 116.964 19.8832C117.594 19.2498 117.911 18.4244 117.911 17.4172C117.911 16.4101 117.594 15.5795 116.949 14.9357ZM111.731 5.85071V12.2517C112.546 11.2913 113.643 10.8137 115.022 10.8137C116.768 10.8137 118.213 11.4523 119.36 12.7294C120.507 14.0065 121.081 15.5691 121.081 17.4224C121.081 19.2758 120.507 20.8332 119.36 22.0999C118.213 23.3666 116.768 24 115.022 24C113.276 24 111.892 23.3406 110.86 22.022L110.684 23.8494H108.565V5.85071H111.731ZM98.1733 20.8384C99.0388 20.8384 99.7887 20.5217 100.428 19.8883C101.067 19.255 101.389 18.4296 101.389 17.4224C101.389 16.4101 101.067 15.5846 100.428 14.9409C99.7887 14.2972 99.0388 13.9753 98.1733 13.9753C97.3077 13.9753 96.5578 14.2972 95.9187 14.9409C95.2796 15.5846 94.9575 16.4101 94.9575 17.4224C94.9575 18.4347 95.2746 19.255 95.9036 19.8883C96.5377 20.5217 97.2926 20.8384 98.1733 20.8384ZM104.303 23.8442H102.184L102.008 22.0168C100.996 23.3355 99.6176 23.9948 97.8713 23.9948C96.125 23.9948 94.6757 23.3614 93.5233 22.0947C92.3708 20.828 91.7921 19.2654 91.7921 17.4172C91.7921 15.5639 92.3708 14.0013 93.5233 12.7242C94.6757 11.4471 96.125 10.8085 97.8713 10.8085C99.6176 10.8085 100.996 11.4782 102.008 12.8124L102.184 10.985H104.303V23.8442ZM86.4627 23.8442L84.3189 20.4231C83.9213 19.7897 83.5691 19.3588 83.2621 19.1356C82.9551 18.9124 82.5173 18.8033 81.9537 18.8033H81.083V23.8442H77.9176V5.85071H81.083V15.6729H81.858C82.4217 15.6729 82.8545 15.5639 83.1564 15.3406C83.4533 15.1174 83.8056 14.6917 84.2032 14.0532L86.1457 10.9954H89.6583L86.8653 15.3406C86.2363 16.353 85.6424 16.976 85.0939 17.2199C85.6575 17.4068 86.2916 18.0506 86.9861 19.146L89.9754 23.8494H86.4627V23.8442ZM67.3948 20.8384C68.2603 20.8384 69.0102 20.5217 69.6493 19.8883C70.2884 19.255 70.6105 18.4296 70.6105 17.4224C70.6105 16.4101 70.2884 15.5846 69.6493 14.9409C69.0102 14.2972 68.2603 13.9753 67.3948 13.9753C66.5292 13.9753 65.7793 14.2972 65.1402 14.9409C64.5011 15.5846 64.179 16.4101 64.179 17.4224C64.179 18.4347 64.4961 19.255 65.1251 19.8883C65.7592 20.5217 66.5141 20.8384 67.3948 20.8384ZM73.5293 23.8442H71.4106L71.2345 22.0168C70.223 23.3355 68.8441 23.9948 67.0978 23.9948C65.3516 23.9948 63.9022 23.3614 62.7498 22.0947C61.5974 20.828 61.0186 19.2654 61.0186 17.4172C61.0186 15.5639 61.5974 14.0013 62.7498 12.7242C63.9022 11.4471 65.3516 10.8085 67.0978 10.8085C68.8441 10.8085 70.223 11.4782 71.2345 12.8124L71.4106 10.985H73.5293V23.8442ZM52.6195 10.8137H52.8208C53.8524 10.8137 54.8337 11.0266 55.7748 11.4575C56.7159 11.8883 57.4557 12.4698 58.0042 13.207L56.2076 14.9305C55.8251 14.4841 55.3068 14.1207 54.6526 13.8403C53.9984 13.56 53.3945 13.4146 52.8459 13.4146H52.6446C52.0609 13.4302 51.5979 13.5496 51.2506 13.7728C50.9034 13.9961 50.7273 14.3024 50.7273 14.6969C50.7273 15.0551 50.8833 15.3199 51.1902 15.4964C51.4972 15.6677 52.0357 15.7871 52.7956 15.8546L53.641 15.9584C56.7159 16.1817 58.2508 17.5159 58.2508 19.9662C58.2508 21.1343 57.7928 22.0947 56.882 22.8578C55.966 23.621 54.7532 24 53.2435 24H53.1177C51.8898 24 50.7323 23.7715 49.6553 23.3199C48.5734 22.8682 47.7782 22.2712 47.2649 21.534L49.0615 19.7845C49.4289 20.231 50.0026 20.6048 50.7826 20.9007C51.5626 21.2018 52.3376 21.3523 53.1026 21.3523H53.2284C54.4764 21.3523 55.0954 20.9318 55.0954 20.0908C55.0954 19.6132 54.9294 19.2758 54.5972 19.0889C54.2651 18.902 53.7165 18.7722 52.9516 18.7047L52.2521 18.6268C49.1269 18.3517 47.5669 17.1109 47.5669 14.8994C47.5669 13.6327 48.05 12.6359 49.0112 11.9195C49.9674 11.1979 51.1751 10.8293 52.6195 10.8137ZM37.3661 12.2777L35.4739 17.1888H39.2382L37.3661 12.2777ZM34.2762 20.5528L33.0281 23.8442H29.2135L36.3898 5.85071H38.4078L45.4935 23.8442H41.6789L40.4308 20.5528H34.2762Z" fill="#373739"/>
<path d="M3.74918 18.9799L2.2948 20.4802C1.52987 21.2641 0.764934 22.0584 0 22.8475V18.985L0.00503246 18.9799H3.74918Z" fill="#E40026"/>
<path d="M16.7229 18.9799V24H1.12228L3.34663 21.7054L4.34306 20.6826L5.98867 18.9799H16.7229Z" fill="#E40026"/>
<path d="M16.7229 7.91174V17.3446H7.57892C10.5833 14.2453 13.6783 11.0578 16.7229 7.91174Z" fill="#E40026"/>
<path d="M23.2651 1.15771V24H18.3082V6.27128C19.2039 5.3472 20.0947 4.42832 20.9854 3.50424L23.2651 1.15771Z" fill="#E40026"/>
<path d="M22.1478 0C16.1591 6.183 10.5077 12.0182 5.33935 17.3446H1.57004L18.1872 0H22.1478Z" fill="#E40026"/>
<path d="M15.9579 0L0 16.6541V0H15.9579Z" fill="#E40026"/>
</svg>
